<svg id="svg" xmlns="http://www.w3.org/2000/svg" xmlns:xlink="http://www.w3.org/1999/xlink" width="400" height="400" viewBox="0, 0, 400,400"><g id="svgg"><path id="path0" d="M229.083 44.438 C 214.720 45.216,201.798 47.987,189.302 52.970 C 186.775 53.977,184.691 54.922,185.750 54.580 C 194.550 51.739,208.866 49.779,220.917 49.766 C 302.938 49.679,363.835 124.313,347.648 205.083 C 346.856 209.033,345.042 215.890,343.924 219.153 C 343.307 220.955,343.487 220.765,344.583 218.459 C 363.863 177.877,359.061 129.431,332.200 93.515 C 310.777 64.871,279.104 47.473,243.250 44.657 C 240.999 44.480,231.124 44.327,229.083 44.438 M101.173 51.181 C 92.437 52.022,84.615 56.886,79.969 64.365 C 78.297 67.057,76.057 72.427,76.545 72.575 C 76.658 72.609,76.985 72.712,77.271 72.803 L 77.793 72.969 78.252 71.776 C 83.304 58.660,94.405 51.386,108.895 51.697 C 111.857 51.760,112.133 51.745,111.250 51.564 C 108.734 51.051,104.286 50.882,101.173 51.181 M105.500 53.772 C 95.003 54.505,86.458 60.049,81.771 69.167 C 80.779 71.096,79.189 75.078,79.348 75.236 C 79.460 75.348,87.349 77.541,87.405 77.476 C 87.434 77.443,87.804 76.592,88.227 75.583 C 92.014 66.568,98.743 61.783,107.667 61.760 C 118.096 61.732,124.262 67.561,124.229 77.417 C 124.199 86.338,120.490 91.544,102.500 107.909 C 98.787 111.287,95.037 114.702,94.167 115.498 C 92.294 117.211,86.514 122.479,80.267 128.168 L 75.784 132.250 101.267 132.299 L 126.750 132.348 130.360 128.632 L 133.970 124.917 118.027 124.868 C 101.860 124.820,99.229 124.886,92.526 125.515 C 90.095 125.743,90.095 125.739,92.615 124.411 C 98.097 121.524,100.419 119.946,104.194 116.544 C 120.955 101.439,124.481 97.832,128.596 91.583 C 133.547 84.066,134.776 76.425,132.262 68.792 C 129.000 58.888,118.293 52.879,105.500 53.772 M216.333 70.838 C 208.823 71.171,201.072 72.323,193.997 74.159 C 191.277 74.864,189.073 75.544,189.917 75.416 C 190.192 75.375,191.129 75.230,192.000 75.095 C 255.265 65.292,314.675 108.596,324.833 171.917 C 326.732 183.754,326.666 198.967,324.670 209.485 C 324.359 211.121,324.613 210.550,325.310 208.048 C 345.012 137.253,289.682 67.588,216.333 70.838 M121.298 73.935 C 121.580 83.014,117.887 88.431,100.759 104.065 C 91.158 112.829,84.776 118.650,78.201 124.641 C 75.249 127.331,72.833 129.562,72.833 129.599 C 72.833 129.636,73.433 129.667,74.166 129.667 L 75.498 129.667 80.207 125.369 C 87.980 118.275,94.396 112.433,101.083 106.360 C 119.815 89.350,123.786 83.146,121.847 73.917 C 121.321 71.412,121.219 71.415,121.298 73.935 M206.833 92.026 C 207.612 92.104,209.450 92.285,210.917 92.428 C 262.754 97.479,304.158 139.943,307.839 191.833 C 307.939 193.254,308.054 194.492,308.093 194.583 C 308.286 195.039,307.998 183.152,307.760 180.833 C 302.755 132.196,264.388 95.155,215.753 92.006 C 212.401 91.789,204.652 91.806,206.833 92.026 M195.167 113.022 C 128.197 116.898,90.354 192.043,127.240 247.901 C 164.037 303.625,247.694 298.862,277.740 239.333 C 307.885 179.609,261.832 109.163,195.167 113.022 M208.083 121.073 C 261.011 126.944,293.344 180.800,273.471 229.986 C 256.394 272.252,206.290 291.388,165.250 271.320 C 118.451 248.435,106.000 187.608,140.025 148.083 C 153.952 131.904,172.931 122.546,195.417 120.770 C 197.290 120.622,205.867 120.827,208.083 121.073 M100.209 122.462 C 99.854 122.735,100.615 122.747,115.209 122.699 C 128.353 122.656,130.619 122.614,130.827 122.408 C 131.238 122.002,100.736 122.056,100.209 122.462 M82.041 168.625 C 60.568 207.234,64.708 255.780,92.419 290.333 C 125.207 331.217,181.868 343.377,228.417 319.518 C 230.342 318.532,232.292 317.480,232.750 317.180 C 233.704 316.558,233.724 316.553,231.167 317.548 C 187.360 334.581,135.986 322.041,104.312 286.583 C 75.512 254.343,67.020 207.708,82.735 168.094 C 83.545 166.053,83.418 166.150,82.041 168.625 M91.605 196.792 C 83.141 261.635,138.823 317.158,203.497 308.366 L 205.578 308.083 199.914 308.079 C 140.038 308.030,91.961 259.896,91.920 199.958 C 91.918 197.048,91.909 194.667,91.899 194.667 C 91.890 194.667,91.757 195.623,91.605 196.792 M289.667 229.460 C 289.667 229.529,291.261 231.179,293.210 233.126 L 296.753 236.667 309.001 236.665 C 321.685 236.663,323.123 236.604,327.373 235.905 C 329.598 235.538,329.603 235.560,327.670 237.341 C 325.196 239.621,323.572 241.467,316.017 250.581 C 312.295 255.071,307.018 261.439,304.290 264.732 C 301.561 268.024,299.362 270.751,299.401 270.790 C 299.441 270.830,300.136 270.603,300.945 270.286 C 308.284 267.411,318.424 267.776,325.058 271.154 C 332.429 274.907,336.200 281.708,336.200 291.250 C 336.200 305.647,326.852 315.016,312.504 314.997 C 301.917 314.983,293.505 310.188,288.676 301.417 C 288.373 300.867,288.099 300.387,288.067 300.352 C 288.026 300.306,280.755 303.611,280.206 303.924 C 279.975 304.056,282.792 308.475,284.305 310.353 C 292.978 321.120,309.557 325.639,324.167 321.217 C 338.521 316.873,347.169 303.567,345.668 288.135 C 344.186 272.904,333.114 262.749,317.172 261.999 C 315.381 261.914,313.884 261.843,313.844 261.839 C 313.805 261.836,314.555 261.280,315.511 260.603 C 319.227 257.975,320.254 256.809,342.375 230.125 L 343.031 229.333 316.349 229.333 C 301.674 229.333,289.667 229.390,289.667 229.460 M331.780 246.151 C 326.134 252.925,321.132 258.790,320.664 259.185 C 319.702 259.996,319.731 260.039,321.349 260.224 L 322.282 260.330 332.516 248.047 C 338.145 241.292,343.113 235.330,343.556 234.799 L 344.362 233.833 343.204 233.833 L 342.046 233.833 331.780 246.151 M321.833 238.689 C 321.054 238.750,314.906 238.808,308.171 238.817 L 295.926 238.833 297.083 240.000 L 298.241 241.167 309.662 241.164 L 321.083 241.161 322.228 239.905 C 322.857 239.215,323.345 238.634,323.311 238.614 C 323.278 238.594,322.612 238.628,321.833 238.689 M307.872 270.684 C 307.205 270.762,305.992 270.982,305.177 271.173 L 303.693 271.521 302.263 273.257 C 300.501 275.397,300.501 275.421,302.271 274.718 C 310.692 271.375,323.015 272.476,329.089 277.113 C 330.186 277.951,329.796 277.315,328.427 276.035 C 323.816 271.721,316.140 269.723,307.872 270.684 M346.517 301.588 C 345.160 306.997,341.051 313.231,336.250 317.163 C 323.587 327.536,302.303 327.630,288.583 317.374 L 286.917 316.128 288.000 317.244 C 296.944 326.457,313.365 329.839,326.737 325.222 C 337.034 321.667,344.361 313.400,346.508 302.914 C 346.877 301.114,346.883 300.127,346.517 301.588 " stroke="none" fill="#040404" fill-rule="evenodd"></path><path id="path1" d="M189.667 0.179 C 188.704 0.252,186.717 0.391,185.250 0.489 C 176.505 1.070,165.951 2.568,157.667 4.404 C 154.688 5.064,154.176 5.180,153.250 5.406 C 152.700 5.540,151.800 5.758,151.250 5.891 C 149.044 6.424,146.732 7.034,146.417 7.165 C 146.099 7.298,145.547 7.451,143.805 7.888 C 143.378 7.996,142.971 8.140,142.903 8.208 C 142.834 8.277,142.647 8.333,142.488 8.333 C 142.153 8.333,132.729 11.414,132.294 11.666 C 132.135 11.758,131.921 11.833,131.819 11.833 C 131.717 11.833,131.397 11.937,131.109 12.064 C 130.820 12.191,129.796 12.578,128.833 12.925 C 127.871 13.271,127.008 13.605,126.917 13.665 C 126.825 13.726,126.375 13.911,125.917 14.076 C 125.458 14.241,124.858 14.474,124.583 14.594 C 124.308 14.714,123.616 15.005,123.046 15.240 C 122.475 15.475,121.598 15.855,121.098 16.084 C 120.598 16.313,120.151 16.500,120.106 16.500 C 120.029 16.500,119.249 16.844,116.770 17.971 C 113.574 19.425,103.980 24.318,102.145 25.431 C 101.629 25.744,101.122 26.000,101.020 26.000 C 100.917 26.000,100.833 26.075,100.833 26.167 C 100.833 26.258,100.752 26.333,100.653 26.333 C 100.402 26.333,91.576 31.681,91.049 32.153 C 90.938 32.252,90.810 32.333,90.765 32.333 C 90.667 32.333,86.665 35.001,86.395 35.246 C 86.292 35.340,86.067 35.513,85.895 35.630 C 84.764 36.403,82.457 38.023,82.287 38.164 C 82.175 38.258,80.961 39.170,79.589 40.191 C 78.217 41.213,77.001 42.131,76.886 42.233 C 76.772 42.334,76.582 42.492,76.464 42.585 C 76.346 42.677,75.725 43.163,75.083 43.664 C 74.442 44.165,73.879 44.617,73.833 44.668 C 73.787 44.719,73.378 45.059,72.923 45.422 C 72.469 45.786,71.977 46.196,71.830 46.333 C 71.683 46.471,71.194 46.883,70.743 47.250 C 69.800 48.018,67.959 49.618,67.004 50.500 C 66.855 50.637,66.142 51.275,65.419 51.917 C 61.685 55.232,55.232 61.685,51.917 65.419 C 51.275 66.142,50.637 66.855,50.500 67.004 C 49.618 67.959,48.018 69.800,47.250 70.743 C 46.883 71.194,46.471 71.683,46.333 71.830 C 46.196 71.977,45.786 72.469,45.422 72.923 C 45.059 73.378,44.719 73.787,44.668 73.833 C 44.617 73.879,44.166 74.442,43.665 75.083 C 43.164 75.725,42.678 76.341,42.585 76.453 C 42.493 76.564,42.328 76.761,42.220 76.891 C 42.112 77.021,41.194 78.242,40.179 79.605 C 39.164 80.968,38.258 82.175,38.164 82.287 C 38.023 82.457,36.403 84.764,35.630 85.895 C 35.513 86.067,35.340 86.292,35.246 86.395 C 35.001 86.665,32.333 90.667,32.333 90.765 C 32.333 90.810,32.252 90.938,32.153 91.049 C 31.681 91.576,26.333 100.402,26.333 100.653 C 26.333 100.752,26.258 100.833,26.167 100.833 C 26.075 100.833,26.000 100.917,26.000 101.020 C 26.000 101.122,25.744 101.629,25.431 102.145 C 24.318 103.980,19.425 113.574,17.971 116.770 C 16.844 119.249,16.500 120.029,16.500 120.106 C 16.500 120.151,16.313 120.598,16.084 121.098 C 15.855 121.598,15.475 122.475,15.240 123.046 C 15.005 123.616,14.714 124.308,14.594 124.583 C 14.474 124.858,14.241 125.458,14.076 125.917 C 13.911 126.375,13.726 126.825,13.665 126.917 C 13.605 127.008,13.271 127.871,12.925 128.833 C 12.578 129.796,12.191 130.820,12.064 131.109 C 11.937 131.397,11.833 131.717,11.833 131.819 C 11.833 131.921,11.758 132.135,11.666 132.294 C 11.414 132.729,8.333 142.153,8.333 142.488 C 8.333 142.647,8.277 142.834,8.208 142.903 C 8.140 142.971,7.996 143.378,7.888 143.805 C 7.451 145.547,7.298 146.099,7.165 146.417 C 7.036 146.726,6.448 148.952,5.900 151.208 C 5.145 154.312,5.198 154.086,4.404 157.667 C 2.582 165.887,1.087 176.387,0.500 185.083 C 0.407 186.458,0.257 188.644,0.166 189.941 C -0.049 192.994,-0.049 207.006,0.166 210.059 C 0.257 211.356,0.407 213.542,0.500 214.917 C 1.087 223.613,2.582 234.113,4.404 242.333 C 5.198 245.914,5.145 245.688,5.900 248.792 C 6.448 251.048,7.036 253.274,7.165 253.583 C 7.298 253.901,7.451 254.453,7.888 256.195 C 7.996 256.622,8.140 257.029,8.208 257.097 C 8.277 257.166,8.333 257.353,8.333 257.512 C 8.333 257.847,11.414 267.271,11.666 267.706 C 11.758 267.865,11.833 268.079,11.833 268.181 C 11.833 268.283,11.937 268.603,12.064 268.891 C 12.191 269.180,12.578 270.204,12.925 271.167 C 13.271 272.129,13.605 272.992,13.665 273.083 C 13.726 273.175,13.911 273.625,14.076 274.083 C 14.241 274.542,14.474 275.142,14.594 275.417 C 14.714 275.692,15.005 276.384,15.240 276.954 C 15.475 277.525,15.855 278.402,16.084 278.902 C 16.313 279.402,16.500 279.849,16.500 279.894 C 16.500 279.971,16.844 280.751,17.971 283.230 C 19.425 286.426,24.318 296.020,25.431 297.855 C 25.744 298.371,26.000 298.878,26.000 298.980 C 26.000 299.083,26.075 299.167,26.167 299.167 C 26.258 299.167,26.333 299.248,26.333 299.347 C 26.333 299.598,31.681 308.424,32.153 308.951 C 32.252 309.062,32.333 309.190,32.333 309.235 C 32.333 309.333,35.001 313.335,35.246 313.605 C 35.340 313.708,35.513 313.933,35.630 314.105 C 36.403 315.236,38.023 317.543,38.164 317.713 C 38.258 317.825,39.170 319.039,40.191 320.411 C 41.213 321.783,42.131 322.999,42.233 323.114 C 42.334 323.228,42.492 323.418,42.585 323.536 C 42.677 323.654,43.163 324.275,43.664 324.917 C 44.165 325.558,44.617 326.121,44.668 326.167 C 44.719 326.212,45.059 326.622,45.422 327.077 C 45.786 327.531,46.196 328.023,46.333 328.170 C 46.471 328.317,46.883 328.806,47.250 329.257 C 48.018 330.200,49.618 332.041,50.500 332.996 C 50.637 333.145,51.275 333.858,51.917 334.581 C 55.232 338.315,61.685 344.768,65.419 348.083 C 66.142 348.725,66.855 349.363,67.004 349.500 C 67.959 350.382,69.800 351.982,70.743 352.750 C 71.194 353.117,71.683 353.529,71.830 353.667 C 71.977 353.804,72.469 354.214,72.923 354.578 C 73.378 354.941,73.787 355.281,73.833 355.332 C 73.879 355.383,74.442 355.834,75.083 356.335 C 75.725 356.836,76.341 357.322,76.453 357.415 C 76.564 357.507,76.761 357.672,76.891 357.780 C 77.021 357.888,78.242 358.806,79.605 359.821 C 80.968 360.836,82.175 361.742,82.287 361.836 C 82.457 361.977,84.764 363.597,85.895 364.370 C 86.067 364.487,86.292 364.660,86.395 364.754 C 86.665 364.999,90.667 367.667,90.765 367.667 C 90.810 367.667,90.938 367.748,91.049 367.847 C 91.576 368.319,100.402 373.667,100.653 373.667 C 100.752 373.667,100.833 373.742,100.833 373.833 C 100.833 373.925,100.917 374.000,101.020 374.000 C 101.122 374.000,101.629 374.256,102.145 374.569 C 103.980 375.682,113.574 380.575,116.770 382.029 C 119.249 383.156,120.029 383.500,120.106 383.500 C 120.151 383.500,120.598 383.687,121.098 383.916 C 121.598 384.145,122.475 384.525,123.046 384.760 C 123.616 384.995,124.308 385.286,124.583 385.406 C 124.858 385.526,125.458 385.759,125.917 385.924 C 126.375 386.089,126.825 386.274,126.917 386.335 C 127.008 386.395,127.871 386.729,128.833 387.075 C 129.796 387.422,130.820 387.809,131.109 387.936 C 131.397 388.063,131.717 388.167,131.819 388.167 C 131.921 388.167,132.135 388.242,132.294 388.334 C 132.729 388.586,142.153 391.667,142.488 391.667 C 142.647 391.667,142.834 391.723,142.903 391.792 C 142.971 391.860,143.378 392.004,143.805 392.112 C 145.547 392.549,146.099 392.702,146.417 392.835 C 146.732 392.966,149.044 393.576,151.250 394.109 C 151.800 394.242,152.700 394.460,153.250 394.594 C 154.176 394.820,154.688 394.936,157.667 395.596 C 165.849 397.409,176.428 398.916,185.083 399.500 C 186.458 399.593,188.644 399.743,189.941 399.834 C 193.011 400.050,207.247 400.048,210.158 399.832 C 211.400 399.740,213.579 399.587,215.000 399.493 C 225.047 398.827,236.891 396.997,246.833 394.574 C 247.338 394.451,248.200 394.241,248.750 394.107 C 250.133 393.771,253.394 392.905,254.500 392.581 C 255.004 392.433,255.792 392.213,256.250 392.092 C 256.708 391.971,257.833 391.630,258.750 391.335 C 259.667 391.040,260.717 390.720,261.083 390.625 C 261.450 390.529,261.825 390.396,261.917 390.328 C 262.008 390.261,262.346 390.150,262.667 390.083 C 262.987 390.016,263.325 389.904,263.417 389.833 C 263.508 389.763,263.843 389.649,264.161 389.581 C 264.479 389.513,264.854 389.398,264.995 389.326 C 265.135 389.253,265.737 389.030,266.333 388.830 C 266.929 388.631,267.567 388.408,267.750 388.334 C 267.933 388.261,268.758 387.958,269.583 387.661 C 272.586 386.580,277.981 384.390,281.250 382.924 C 281.800 382.677,282.512 382.358,282.833 382.214 C 285.343 381.090,290.892 378.360,293.375 377.027 C 294.085 376.645,295.248 376.022,295.958 375.641 C 296.669 375.261,297.512 374.787,297.833 374.588 C 298.154 374.389,298.529 374.184,298.667 374.133 C 299.334 373.885,308.872 368.016,308.972 367.792 C 309.003 367.723,309.093 367.667,309.172 367.667 C 309.304 367.667,313.307 365.051,313.500 364.838 C 313.546 364.788,314.183 364.339,314.917 363.840 C 316.391 362.839,322.496 358.313,322.856 357.955 C 322.981 357.830,323.206 357.658,323.355 357.573 C 323.695 357.378,324.244 356.935,328.091 353.750 C 329.498 352.585,331.414 350.956,331.500 350.851 C 331.546 350.795,331.883 350.494,332.250 350.182 C 337.426 345.776,345.114 338.078,350.414 331.994 C 351.330 330.943,352.120 330.046,352.170 330.000 C 352.220 329.954,352.559 329.545,352.922 329.090 C 353.286 328.636,353.696 328.143,353.833 327.996 C 354.185 327.620,355.062 326.542,356.747 324.417 C 357.545 323.408,358.324 322.433,358.477 322.250 C 358.630 322.067,358.939 321.654,359.164 321.333 C 359.388 321.012,359.650 320.659,359.745 320.547 C 360.055 320.182,360.246 319.928,360.898 319.012 C 361.252 318.515,361.611 318.028,361.695 317.929 C 361.840 317.760,363.252 315.779,363.707 315.106 C 363.822 314.935,364.148 314.485,364.430 314.106 C 365.172 313.112,367.563 309.525,368.779 307.583 C 370.551 304.755,374.000 299.038,374.000 298.929 C 374.000 298.873,374.175 298.547,374.388 298.205 C 375.773 295.990,382.500 282.763,382.500 282.256 C 382.500 282.220,382.730 281.678,383.011 281.053 C 383.688 279.545,383.756 279.389,384.167 278.417 C 384.360 277.958,384.586 277.433,384.670 277.250 C 384.753 277.067,385.092 276.242,385.422 275.417 C 385.752 274.592,386.121 273.692,386.241 273.417 C 387.468 270.609,390.844 260.669,392.242 255.750 C 392.399 255.200,392.594 254.563,392.676 254.333 C 392.758 254.104,392.896 253.617,392.982 253.250 C 393.068 252.883,393.377 251.683,393.668 250.583 C 393.959 249.483,394.311 248.096,394.449 247.500 C 394.588 246.904,394.807 245.967,394.936 245.417 C 401.797 216.017,401.794 184.968,394.925 154.500 C 394.791 153.904,394.334 152.067,393.910 150.417 C 393.486 148.767,393.068 147.117,392.982 146.750 C 392.896 146.383,392.758 145.896,392.676 145.667 C 392.594 145.438,392.399 144.800,392.242 144.250 C 390.844 139.331,387.468 129.391,386.241 126.583 C 386.121 126.308,385.752 125.408,385.422 124.583 C 385.092 123.758,384.753 122.933,384.670 122.750 C 384.586 122.567,384.360 122.042,384.167 121.583 C 383.756 120.611,383.688 120.455,383.011 118.947 C 382.730 118.322,382.500 117.780,382.500 117.744 C 382.500 117.237,375.773 104.010,374.388 101.795 C 374.175 101.453,374.000 101.127,374.000 101.071 C 374.000 100.962,370.551 95.245,368.779 92.417 C 367.563 90.475,365.172 86.888,364.430 85.894 C 364.148 85.515,363.804 85.039,363.667 84.836 C 363.529 84.633,362.755 83.556,361.947 82.442 C 361.139 81.328,360.351 80.240,360.197 80.023 C 360.043 79.807,359.842 79.544,359.750 79.440 C 359.658 79.335,359.099 78.612,358.506 77.833 C 357.127 76.020,354.355 72.562,353.833 72.004 C 353.696 71.857,353.285 71.364,352.919 70.910 C 352.554 70.455,352.022 69.821,351.736 69.500 C 351.450 69.179,350.217 67.792,348.996 66.417 C 344.123 60.932,336.930 53.802,332.250 49.818 C 331.883 49.506,331.546 49.205,331.500 49.149 C 331.407 49.036,329.333 47.275,328.084 46.250 C 327.638 45.883,327.036 45.380,326.747 45.132 C 326.459 44.884,325.554 44.154,324.736 43.510 C 323.919 42.866,323.100 42.218,322.917 42.070 C 321.886 41.242,316.049 36.929,314.917 36.160 C 314.183 35.661,313.546 35.212,313.500 35.162 C 313.307 34.949,309.304 32.333,309.172 32.333 C 309.093 32.333,309.003 32.277,308.972 32.208 C 308.872 31.984,299.334 26.115,298.667 25.867 C 298.529 25.816,298.154 25.611,297.833 25.412 C 297.512 25.213,296.669 24.739,295.958 24.359 C 295.248 23.978,294.085 23.355,293.375 22.973 C 290.892 21.640,285.343 18.910,282.833 17.786 C 282.512 17.642,281.800 17.323,281.250 17.076 C 277.981 15.610,272.586 13.420,269.583 12.339 C 268.758 12.042,267.933 11.737,267.750 11.661 C 267.567 11.585,266.592 11.249,265.583 10.915 C 264.575 10.580,263.600 10.244,263.417 10.166 C 263.233 10.089,261.846 9.640,260.333 9.169 C 258.821 8.697,257.396 8.243,257.167 8.160 C 256.938 8.076,256.450 7.936,256.083 7.849 C 255.717 7.761,255.004 7.569,254.500 7.420 C 253.446 7.110,250.201 6.247,248.792 5.901 C 244.806 4.925,242.869 4.487,239.917 3.897 C 231.412 2.198,222.744 1.018,215.000 0.506 C 213.579 0.413,211.400 0.260,210.158 0.168 C 207.552 -0.026,192.267 -0.017,189.667 0.179 M243.250 44.657 C 279.104 47.473,310.777 64.871,332.200 93.515 C 359.061 129.431,363.863 177.877,344.583 218.459 C 343.487 220.765,343.307 220.955,343.924 219.153 C 357.788 178.663,348.860 130.939,321.087 97.083 C 290.632 59.958,242.428 42.780,195.346 52.274 C 192.904 52.766,186.894 54.211,185.750 54.580 C 184.691 54.922,186.775 53.977,189.302 52.970 C 201.798 47.987,214.720 45.216,229.083 44.438 C 231.124 44.327,240.999 44.480,243.250 44.657 M108.333 51.181 C 112.361 51.558,112.598 51.776,108.895 51.697 C 94.405 51.386,83.304 58.660,78.252 71.776 L 77.793 72.969 77.271 72.803 C 76.985 72.712,76.658 72.609,76.545 72.575 C 76.275 72.493,77.242 69.677,78.317 67.417 C 83.782 55.917,94.870 49.920,108.333 51.181 M113.000 54.103 C 131.790 56.792,139.425 75.140,128.596 91.583 C 124.481 97.832,120.955 101.439,104.194 116.544 C 100.419 119.946,98.097 121.524,92.615 124.411 C 90.095 125.739,90.095 125.743,92.526 125.515 C 99.229 124.886,101.860 124.820,118.027 124.868 L 133.970 124.917 130.360 128.632 L 126.750 132.348 101.267 132.299 L 75.784 132.250 80.267 128.168 C 86.514 122.479,92.294 117.211,94.167 115.498 C 95.037 114.702,98.787 111.287,102.500 107.909 C 120.490 91.544,124.199 86.338,124.229 77.417 C 124.262 67.561,118.096 61.732,107.667 61.760 C 98.743 61.783,92.014 66.568,88.227 75.583 C 87.804 76.592,87.434 77.443,87.405 77.476 C 87.349 77.541,79.460 75.348,79.348 75.236 C 79.189 75.078,80.779 71.096,81.771 69.167 C 87.608 57.811,99.346 52.149,113.000 54.103 M229.667 71.094 C 297.326 76.341,343.546 142.524,325.310 208.048 C 324.613 210.550,324.359 211.121,324.670 209.485 C 326.666 198.967,326.732 183.754,324.833 171.917 C 314.675 108.596,255.265 65.292,192.000 75.095 C 191.129 75.230,190.192 75.375,189.917 75.416 C 189.073 75.544,191.277 74.864,193.997 74.159 C 205.421 71.195,217.539 70.154,229.667 71.094 M121.847 73.917 C 123.786 83.146,119.815 89.350,101.083 106.360 C 94.396 112.433,87.980 118.275,80.207 125.369 L 75.498 129.667 74.166 129.667 C 73.433 129.667,72.833 129.636,72.833 129.599 C 72.833 129.562,75.249 127.331,78.201 124.641 C 84.776 118.650,91.158 112.829,100.759 104.065 C 117.887 88.431,121.580 83.014,121.298 73.935 C 121.219 71.415,121.321 71.412,121.847 73.917 M215.753 92.006 C 264.388 95.155,302.755 132.196,307.760 180.833 C 307.998 183.152,308.286 195.039,308.093 194.583 C 308.054 194.492,307.939 193.254,307.839 191.833 C 304.158 139.943,262.754 97.479,210.917 92.428 C 205.004 91.852,205.100 91.885,209.253 91.858 C 211.363 91.845,214.288 91.911,215.753 92.006 M204.273 113.002 C 256.397 115.952,293.954 162.100,286.063 213.500 C 279.574 255.769,242.962 287.064,200.000 287.064 C 144.300 287.064,103.047 235.726,114.930 181.197 C 123.919 139.946,162.329 110.628,204.273 113.002 M195.417 120.770 C 152.348 124.172,120.771 157.688,120.771 200.000 C 120.771 248.953,164.265 286.031,212.644 278.321 C 255.772 271.448,285.222 230.659,278.321 187.356 C 272.939 153.583,245.879 126.685,212.167 121.596 C 207.609 120.908,199.025 120.485,195.417 120.770 M130.827 122.408 C 130.619 122.614,128.353 122.656,115.209 122.699 C 100.615 122.747,99.854 122.735,100.209 122.462 C 100.736 122.056,131.238 122.002,130.827 122.408 M82.735 168.094 C 67.020 207.708,75.512 254.343,104.312 286.583 C 135.986 322.041,187.360 334.581,231.167 317.548 C 233.724 316.553,233.704 316.558,232.750 317.180 C 232.292 317.480,230.342 318.532,228.417 319.518 C 181.868 343.377,125.207 331.217,92.419 290.333 C 64.708 255.780,60.568 207.234,82.041 168.625 C 83.418 166.150,83.545 166.053,82.735 168.094 M91.920 199.958 C 91.961 259.896,140.038 308.030,199.914 308.079 L 205.578 308.083 203.497 308.366 C 138.823 317.158,83.141 261.635,91.605 196.792 C 91.757 195.623,91.890 194.667,91.899 194.667 C 91.909 194.667,91.918 197.048,91.920 199.958 M342.375 230.125 C 320.254 256.809,319.227 257.975,315.511 260.603 C 314.555 261.280,313.805 261.836,313.844 261.839 C 313.884 261.843,315.381 261.914,317.172 261.999 C 334.344 262.807,345.786 274.563,345.829 291.441 C 345.876 310.007,332.301 322.786,312.583 322.737 C 299.359 322.705,289.055 317.630,282.506 307.926 C 281.717 306.756,280.118 303.975,280.206 303.924 C 280.755 303.611,288.026 300.306,288.067 300.352 C 288.099 300.387,288.373 300.867,288.676 301.417 C 298.296 318.892,324.918 319.927,333.576 303.164 C 338.335 293.949,336.614 280.721,329.839 274.449 C 323.198 268.300,310.635 266.490,300.945 270.286 C 300.136 270.603,299.441 270.830,299.401 270.790 C 299.362 270.751,301.561 268.024,304.290 264.732 C 325.239 239.450,324.708 240.071,327.670 237.341 C 329.603 235.560,329.598 235.538,327.373 235.905 C 323.123 236.604,321.685 236.663,309.001 236.665 L 296.753 236.667 293.210 233.126 C 291.261 231.179,289.667 229.529,289.667 229.460 C 289.667 229.390,301.674 229.333,316.349 229.333 L 343.031 229.333 342.375 230.125 M343.556 234.799 C 343.113 235.330,338.145 241.292,332.516 248.047 L 322.282 260.330 321.349 260.224 C 319.731 260.039,319.702 259.996,320.664 259.185 C 321.132 258.790,326.134 252.925,331.780 246.151 L 342.046 233.833 343.204 233.833 L 344.362 233.833 343.556 234.799 M322.228 239.905 L 321.083 241.161 309.662 241.164 L 298.241 241.167 297.083 240.000 L 295.926 238.833 308.171 238.817 C 314.906 238.808,321.054 238.750,321.833 238.689 C 322.612 238.628,323.278 238.594,323.311 238.614 C 323.345 238.634,322.857 239.215,322.228 239.905 M315.798 270.679 C 320.974 271.252,325.256 273.068,328.427 276.035 C 329.796 277.315,330.186 277.951,329.089 277.113 C 323.015 272.476,310.692 271.375,302.271 274.718 C 300.501 275.421,300.501 275.397,302.263 273.257 L 303.693 271.521 305.177 271.173 C 307.964 270.519,312.461 270.310,315.798 270.679 M346.508 302.914 C 344.361 313.400,337.034 321.667,326.737 325.222 C 313.365 329.839,296.944 326.457,288.000 317.244 L 286.917 316.128 288.583 317.374 C 302.303 327.630,323.587 327.536,336.250 317.163 C 341.051 313.231,345.160 306.997,346.517 301.588 C 346.883 300.127,346.877 301.114,346.508 302.914 " stroke="none" fill="#fbfbfb" fill-rule="evenodd"></path></g></svg>